<?xml version="1.0" encoding="UTF-8" standalone="no"?>
<!-- Created with Inkscape (http://www.inkscape.org/) -->

<svg
   xmlns:dc="http://purl.org/dc/elements/1.1/"
   xmlns:cc="http://creativecommons.org/ns#"
   xmlns:rdf="http://www.w3.org/1999/02/22-rdf-syntax-ns#"
   xmlns:svg="http://www.w3.org/2000/svg"
   xmlns="http://www.w3.org/2000/svg"
   xmlns:sodipodi="http://sodipodi.sourceforge.net/DTD/sodipodi-0.dtd"
   xmlns:inkscape="http://www.inkscape.org/namespaces/inkscape"
   width="64"
   height="64"
   id="svg2"
   version="1.1"
   inkscape:version="0.48.0 r9654"
   sodipodi:docname="Hulk_X-90.svg"
   inkscape:export-filename="/home/bengt/Projekte/FactoryTiles/bot/Hulk_X-90/64/Hulk_X-90.png"
   inkscape:export-xdpi="90"
   inkscape:export-ydpi="90">
  <defs
     id="defs4">
    <inkscape:perspective
       sodipodi:type="inkscape:persp3d"
       inkscape:vp_x="0 : 0.5 : 1"
       inkscape:vp_y="0 : 1000 : 0"
       inkscape:vp_z="1 : 0.5 : 1"
       inkscape:persp3d-origin="0.5 : 0.33333333 : 1"
       id="perspective5283" />
    <inkscape:perspective
       sodipodi:type="inkscape:persp3d"
       inkscape:vp_x="0 : 0.5 : 1"
       inkscape:vp_y="0 : 1000 : 0"
       inkscape:vp_z="1 : 0.5 : 1"
       inkscape:persp3d-origin="0.5 : 0.33333333 : 1"
       id="perspective5258" />
    <inkscape:perspective
       id="perspective10"
       inkscape:persp3d-origin="0.5 : 0.33333333 : 1"
       inkscape:vp_z="1 : 0.5 : 1"
       inkscape:vp_y="0 : 1000 : 0"
       inkscape:vp_x="0 : 0.5 : 1"
       sodipodi:type="inkscape:persp3d" />
  </defs>
  <sodipodi:namedview
     id="base"
     pagecolor="#ffffff"
     bordercolor="#666666"
     borderopacity="1.0"
     inkscape:pageopacity="0.0"
     inkscape:pageshadow="2"
     inkscape:zoom="8.5092609"
     inkscape:cx="32.099949"
     inkscape:cy="36.297081"
     inkscape:document-units="px"
     inkscape:current-layer="layer1"
     showgrid="true"
     fit-margin-top="0"
     fit-margin-left="0"
     fit-margin-right="0"
     fit-margin-bottom="0"
     borderlayer="true"
     inkscape:showpageshadow="false"
     inkscape:window-width="1280"
     inkscape:window-height="946"
     inkscape:window-x="0"
     inkscape:window-y="0"
     inkscape:window-maximized="1">
    <inkscape:grid
       type="xygrid"
       id="grid3113"
       empspacing="8"
       visible="true"
       enabled="true"
       snapvisiblegridlinesonly="true"
       spacingx="1px"
       spacingy="1px" />
  </sodipodi:namedview>
  <metadata
     id="metadata7">
    <rdf:RDF>
      <cc:Work
         rdf:about="">
        <dc:format>image/svg+xml</dc:format>
        <dc:type
           rdf:resource="http://purl.org/dc/dcmitype/StillImage" />
      </cc:Work>
    </rdf:RDF>
  </metadata>
  <g
     inkscape:label="Ebene 1"
     inkscape:groupmode="layer"
     id="layer1"
     transform="translate(-236.07143,-621.86221)">
    <g
       id="g3029"
       transform="matrix(-1,0,0,-1,536.14286,1307.7244)">
      <path
         transform="translate(236.07143,621.86221)"
         d="m 24,16 c 0,4.418278 -3.581722,8 -8,8 -4.418278,0 -8,-3.581722 -8,-8 0,-4.418278 3.581722,-8 8,-8 4.418278,0 8,3.581722 8,8 z"
         sodipodi:ry="8"
         sodipodi:rx="8"
         sodipodi:cy="16"
         sodipodi:cx="16"
         id="path3115"
         style="fill:#000000;fill-opacity:1;stroke:none"
         sodipodi:type="arc" />
      <path
         sodipodi:type="arc"
         style="fill:#ffffff;fill-opacity:1;stroke:none"
         id="path3117"
         sodipodi:cx="16"
         sodipodi:cy="16"
         sodipodi:rx="7"
         sodipodi:ry="7"
         d="m 23,16 c 0,3.865993 -3.134007,7 -7,7 -3.865993,0 -7,-3.134007 -7,-7 0,-3.865993 3.134007,-7 7,-7 3.865993,0 7,3.134007 7,7 z"
         transform="translate(236.07143,621.86221)" />
      <path
         d="m 24,16 c 0,4.418278 -3.581722,8 -8,8 -4.418278,0 -8,-3.581722 -8,-8 0,-4.418278 3.581722,-8 8,-8 4.418278,0 8,3.581722 8,8 z"
         sodipodi:ry="8"
         sodipodi:rx="8"
         sodipodi:cy="16"
         sodipodi:cx="16"
         id="path3115-9"
         style="fill:#000000;fill-opacity:1;stroke:none"
         sodipodi:type="arc"
         transform="translate(268.07143,621.86221)" />
      <path
         sodipodi:type="arc"
         style="fill:#ffffff;fill-opacity:1;stroke:none"
         id="path3117-0"
         sodipodi:cx="16"
         sodipodi:cy="16"
         sodipodi:rx="7"
         sodipodi:ry="7"
         d="m 23,16 c 0,3.865993 -3.134007,7 -7,7 -3.865993,0 -7,-3.134007 -7,-7 0,-3.865993 3.134007,-7 7,-7 3.865993,0 7,3.134007 7,7 z"
         transform="translate(268.07143,621.86221)" />
      <path
         transform="translate(252.07143,653.86221)"
         sodipodi:type="arc"
         style="fill:#000000;fill-opacity:1;stroke:none"
         id="path3908"
         sodipodi:cx="16"
         sodipodi:cy="16"
         sodipodi:rx="8"
         sodipodi:ry="8"
         d="m 24,16 c 0,4.418278 -3.581722,8 -8,8 -4.418278,0 -8,-3.581722 -8,-8 0,-4.418278 3.581722,-8 8,-8 4.418278,0 8,3.581722 8,8 z" />
      <path
         transform="translate(252.07143,653.86221)"
         d="m 23,16 c 0,3.865993 -3.134007,7 -7,7 -3.865993,0 -7,-3.134007 -7,-7 0,-3.865993 3.134007,-7 7,-7 3.865993,0 7,3.134007 7,7 z"
         sodipodi:ry="7"
         sodipodi:rx="7"
         sodipodi:cy="16"
         sodipodi:cx="16"
         id="path3910"
         style="fill:#ffffff;fill-opacity:1;stroke:none"
         sodipodi:type="arc" />
      <g
         id="g3927">
        <rect
           style="fill:#000000;fill-opacity:1;stroke:none"
           id="rect3923"
           width="6"
           height="5"
           x="265.07144"
           y="666.86218" />
        <rect
           y="667.86218"
           x="266.07144"
           height="3"
           width="4"
           id="rect3925"
           style="fill:#ffffff;fill-opacity:1;stroke:none" />
      </g>
      <g
         inkscape:transform-center-x="15.775809"
         transform="matrix(-0.58778525,0.80901699,-0.80901699,-0.58778525,951.38945,814.96728)"
         inkscape:transform-center-y="-11.461797"
         id="g3943">
        <rect
           y="666.86218"
           x="265.07144"
           height="5"
           width="6"
           id="rect3945"
           style="fill:#000000;fill-opacity:1;stroke:none" />
        <rect
           style="fill:#ffffff;fill-opacity:1;stroke:none"
           id="rect3947"
           width="4"
           height="3"
           x="266.07144"
           y="667.86218" />
      </g>
      <g
         inkscape:transform-center-x="-15.775807"
         transform="matrix(-0.58778525,-0.80901699,0.80901699,-0.58778525,-100.10969,1248.716)"
         inkscape:transform-center-y="-11.461778"
         id="g3931">
        <rect
           y="666.86218"
           x="265.07144"
           height="5"
           width="6"
           id="rect3933"
           style="fill:#000000;fill-opacity:1;stroke:none" />
        <rect
           style="fill:#ffffff;fill-opacity:1;stroke:none"
           id="rect3935"
           width="4"
           height="3"
           x="266.07144"
           y="667.86218" />
      </g>
      <path
         d="m 24,16 c 0,4.418278 -3.581722,8 -8,8 -4.418278,0 -8,-3.581722 -8,-8 0,-4.418278 3.581722,-8 8,-8 4.418278,0 8,3.581722 8,8 z"
         sodipodi:ry="8"
         sodipodi:rx="8"
         sodipodi:cy="16"
         sodipodi:cx="16"
         id="path3115-8"
         style="fill:#000000;fill-opacity:1;stroke:none"
         sodipodi:type="arc"
         transform="matrix(2.5,0,0,2.5,228.07143,609.86221)" />
      <path
         sodipodi:type="arc"
         style="fill:#ffffff;fill-opacity:1;stroke:none"
         id="path3117-5"
         sodipodi:cx="16"
         sodipodi:cy="16"
         sodipodi:rx="19"
         sodipodi:ry="19"
         d="M 35,16 C 35,26.49341 26.49341,35 16,35 5.5065898,35 -3,26.49341 -3,16 -3,5.5065898 5.5065898,-3 16,-3 26.49341,-3 35,5.5065898 35,16 z"
         transform="translate(252.07143,633.86221)" />
      <path
         sodipodi:end="5.508383"
         sodipodi:start="3.9236328"
         transform="translate(240.07143,624.36221)"
         d="m 23.033659,15.066902 c 2.724475,-2.742835 7.156605,-2.757718 9.899439,-0.03324 0.0231,0.02295 0.04604,0.04605 0.06882,0.06932 L 28,20 z"
         sodipodi:ry="7"
         sodipodi:rx="7"
         sodipodi:cy="20"
         sodipodi:cx="28"
         id="path3991"
         style="fill:#000000;fill-opacity:1;stroke:none"
         sodipodi:type="arc" />
      <path
         transform="translate(236.07143,625.86221)"
         d="m 41,24 c 0,4.970563 -4.029437,9 -9,9 -4.970563,0 -9,-4.029437 -9,-9 0,-4.970563 4.029437,-9 9,-9 4.970563,0 9,4.029437 9,9 z"
         sodipodi:ry="9"
         sodipodi:rx="9"
         sodipodi:cy="24"
         sodipodi:cx="32"
         id="path4033"
         style="fill:#000000;fill-opacity:1;stroke:none"
         sodipodi:type="arc" />
      <path
         sodipodi:end="5.4101816"
         sodipodi:start="4.0250289"
         sodipodi:type="arc"
         style="fill:#ffffff;fill-opacity:1;stroke:none"
         id="path3993"
         sodipodi:cx="28"
         sodipodi:cy="20"
         sodipodi:rx="6"
         sodipodi:ry="6"
         d="m 24.193006,15.362458 c 2.231139,-1.831559 5.450251,-1.814767 7.662161,0.03997 L 28,20 z"
         transform="translate(240.07143,624.36221)" />
      <path
         sodipodi:type="arc"
         style="fill:#ffffff;fill-opacity:1;stroke:none"
         id="path4035"
         sodipodi:cx="32"
         sodipodi:cy="24"
         sodipodi:rx="8"
         sodipodi:ry="8"
         d="m 40,24 c 0,4.418278 -3.581722,8 -8,8 -4.418278,0 -8,-3.581722 -8,-8 0,-4.418278 3.581722,-8 8,-8 4.418278,0 8,3.581722 8,8 z"
         transform="translate(236.07143,625.86221)" />
      <path
         sodipodi:nodetypes="cczc"
         transform="translate(236.07143,621.86221)"
         inkscape:connector-curvature="0"
         id="path3987"
         d="m 27,17 10,0 c 0,4 -3,13 -5,13 -2,0 -5,-9 -5,-13 z"
         style="fill:#000000;fill-opacity:1;stroke:none" />
      <path
         style="fill:#ffffff;fill-opacity:1;stroke:none"
         d="m 28,18 8,0 c 0,4 -3,11 -4,11 -1,0 -4,-7 -4,-11 z"
         id="path3989"
         inkscape:connector-curvature="0"
         transform="translate(236.07143,621.86221)"
         sodipodi:nodetypes="cczc" />
      <g
         inkscape:transform-center-x="5.4296304"
         inkscape:transform-center-y="-6.4552688"
         transform="matrix(0.89899734,0.43795409,-0.43795409,0.89899734,309.95783,-45.936819)"
         id="g4075">
        <g
           id="g4055"
           transform="translate(11,2)">
          <path
             transform="translate(226.07143,621.86221)"
             d="m 22,23 c 0,2.761424 -2.238576,5 -5,5 -2.761424,0 -5,-2.238576 -5,-5 0,-2.761424 2.238576,-5 5,-5 2.761424,0 5,2.238576 5,5 z"
             sodipodi:ry="5"
             sodipodi:rx="5"
             sodipodi:cy="23"
             sodipodi:cx="17"
             id="path4051"
             style="fill:#000000;fill-opacity:1;stroke:none"
             sodipodi:type="arc" />
          <path
             sodipodi:type="arc"
             style="fill:#ffffff;fill-opacity:1;stroke:none"
             id="path4053"
             sodipodi:cx="17"
             sodipodi:cy="23"
             sodipodi:rx="4"
             sodipodi:ry="4"
             d="m 21,23 c 0,2.209139 -1.790861,4 -4,4 -2.209139,0 -4,-1.790861 -4,-4 0,-2.209139 1.790861,-4 4,-4 2.209139,0 4,1.790861 4,4 z"
             transform="translate(226.07143,621.86221)" />
        </g>
        <path
           style="fill:#000000;fill-opacity:1;stroke:none"
           d="m 251.72768,639.20596 c 0.22683,0.50191 0.34375,1.06967 0.34375,1.65625 0,2.20914 -1.79086,4 -4,4 -0.58658,0 -1.15434,-0.11692 -1.65625,-0.34375 0.62744,1.38833 2.03369,2.34375 3.65625,2.34375 2.20914,0 4,-1.79086 4,-4 0,-1.62256 -0.95542,-3.02881 -2.34375,-3.65625 z"
           id="path4041"
           inkscape:connector-curvature="0" />
        <g
           id="g4071"
           transform="translate(12,3)">
          <path
             transform="translate(225.07143,620.86221)"
             d="m 20,23 c 0,1.656854 -1.343146,3 -3,3 -1.656854,0 -3,-1.343146 -3,-3 0,-1.656854 1.343146,-3 3,-3 1.656854,0 3,1.343146 3,3 z"
             sodipodi:ry="3"
             sodipodi:rx="3"
             sodipodi:cy="23"
             sodipodi:cx="17"
             id="path4067"
             style="fill:#000000;fill-opacity:1;stroke:none"
             sodipodi:type="arc" />
          <path
             sodipodi:type="arc"
             style="fill:#ffffff;fill-opacity:1;stroke:none"
             id="path4069"
             sodipodi:cx="17"
             sodipodi:cy="23"
             sodipodi:rx="2"
             sodipodi:ry="2"
             d="m 19,23 c 0,1.104569 -0.895431,2 -2,2 -1.104569,0 -2,-0.895431 -2,-2 0,-1.104569 0.895431,-2 2,-2 1.104569,0 2,0.895431 2,2 z"
             transform="translate(225.07143,620.86221)" />
        </g>
        <path
           transform="translate(235.07143,621.86221)"
           d="m 20,23 c 0,1.656854 -1.343146,3 -3,3 -1.656854,0 -3,-1.343146 -3,-3 0,-1.656854 1.343146,-3 3,-3 1.656854,0 3,1.343146 3,3 z"
           sodipodi:ry="3"
           sodipodi:rx="3"
           sodipodi:cy="23"
           sodipodi:cx="17"
           id="path4049"
           style="fill:#000000;fill-opacity:1;stroke:none"
           sodipodi:type="arc" />
        <path
           sodipodi:type="arc"
           style="fill:#ffffff;fill-opacity:1;stroke:none"
           id="path4047"
           sodipodi:cx="17"
           sodipodi:cy="23"
           sodipodi:rx="2"
           sodipodi:ry="2"
           d="m 19,23 c 0,1.104569 -0.895431,2 -2,2 -1.104569,0 -2,-0.895431 -2,-2 0,-1.104569 0.895431,-2 2,-2 1.104569,0 2,0.895431 2,2 z"
           transform="translate(235.07143,621.86221)" />
      </g>
      <g
         id="g4126"
         transform="matrix(-0.89899734,0.43795409,0.43795409,0.89899734,226.18728,-45.936819)"
         inkscape:transform-center-y="-6.4552688"
         inkscape:transform-center-x="-5.4296334">
        <g
           transform="translate(11,2)"
           id="g4128">
          <path
             sodipodi:type="arc"
             style="fill:#000000;fill-opacity:1;stroke:none"
             id="path4130"
             sodipodi:cx="17"
             sodipodi:cy="23"
             sodipodi:rx="5"
             sodipodi:ry="5"
             d="m 22,23 c 0,2.761424 -2.238576,5 -5,5 -2.761424,0 -5,-2.238576 -5,-5 0,-2.761424 2.238576,-5 5,-5 2.761424,0 5,2.238576 5,5 z"
             transform="translate(226.07143,621.86221)" />
          <path
             transform="translate(226.07143,621.86221)"
             d="m 21,23 c 0,2.209139 -1.790861,4 -4,4 -2.209139,0 -4,-1.790861 -4,-4 0,-2.209139 1.790861,-4 4,-4 2.209139,0 4,1.790861 4,4 z"
             sodipodi:ry="4"
             sodipodi:rx="4"
             sodipodi:cy="23"
             sodipodi:cx="17"
             id="path4132"
             style="fill:#ffffff;fill-opacity:1;stroke:none"
             sodipodi:type="arc" />
        </g>
        <path
           inkscape:connector-curvature="0"
           id="path4134"
           d="m 251.72768,639.20596 c 0.22683,0.50191 0.34375,1.06967 0.34375,1.65625 0,2.20914 -1.79086,4 -4,4 -0.58658,0 -1.15434,-0.11692 -1.65625,-0.34375 0.62744,1.38833 2.03369,2.34375 3.65625,2.34375 2.20914,0 4,-1.79086 4,-4 0,-1.62256 -0.95542,-3.02881 -2.34375,-3.65625 z"
           style="fill:#000000;fill-opacity:1;stroke:none" />
        <g
           transform="translate(12,3)"
           id="g4136">
          <path
             sodipodi:type="arc"
             style="fill:#000000;fill-opacity:1;stroke:none"
             id="path4138"
             sodipodi:cx="17"
             sodipodi:cy="23"
             sodipodi:rx="3"
             sodipodi:ry="3"
             d="m 20,23 c 0,1.656854 -1.343146,3 -3,3 -1.656854,0 -3,-1.343146 -3,-3 0,-1.656854 1.343146,-3 3,-3 1.656854,0 3,1.343146 3,3 z"
             transform="translate(225.07143,620.86221)" />
          <path
             transform="translate(225.07143,620.86221)"
             d="m 19,23 c 0,1.104569 -0.895431,2 -2,2 -1.104569,0 -2,-0.895431 -2,-2 0,-1.104569 0.895431,-2 2,-2 1.104569,0 2,0.895431 2,2 z"
             sodipodi:ry="2"
             sodipodi:rx="2"
             sodipodi:cy="23"
             sodipodi:cx="17"
             id="path4140"
             style="fill:#ffffff;fill-opacity:1;stroke:none"
             sodipodi:type="arc" />
        </g>
        <path
           sodipodi:type="arc"
           style="fill:#000000;fill-opacity:1;stroke:none"
           id="path4142"
           sodipodi:cx="17"
           sodipodi:cy="23"
           sodipodi:rx="3"
           sodipodi:ry="3"
           d="m 20,23 c 0,1.656854 -1.343146,3 -3,3 -1.656854,0 -3,-1.343146 -3,-3 0,-1.656854 1.343146,-3 3,-3 1.656854,0 3,1.343146 3,3 z"
           transform="translate(235.07143,621.86221)" />
        <path
           transform="translate(235.07143,621.86221)"
           d="m 19,23 c 0,1.104569 -0.895431,2 -2,2 -1.104569,0 -2,-0.895431 -2,-2 0,-1.104569 0.895431,-2 2,-2 1.104569,0 2,0.895431 2,2 z"
           sodipodi:ry="2"
           sodipodi:rx="2"
           sodipodi:cy="23"
           sodipodi:cx="17"
           id="path4144"
           style="fill:#ffffff;fill-opacity:1;stroke:none"
           sodipodi:type="arc" />
      </g>
    </g>
  </g>
</svg>
