<?xml version="1.0" encoding="UTF-8" standalone="no"?>
<!-- Created with Inkscape (http://www.inkscape.org/) -->

<svg
   xmlns:dc="http://purl.org/dc/elements/1.1/"
   xmlns:cc="http://creativecommons.org/ns#"
   xmlns:rdf="http://www.w3.org/1999/02/22-rdf-syntax-ns#"
   xmlns:svg="http://www.w3.org/2000/svg"
   xmlns="http://www.w3.org/2000/svg"
   xmlns:sodipodi="http://sodipodi.sourceforge.net/DTD/sodipodi-0.dtd"
   xmlns:inkscape="http://www.inkscape.org/namespaces/inkscape"
   id="svg2"
   version="1.1"
   inkscape:version="0.48.0 r9654"
   width="64"
   height="64"
   sodipodi:docname="Twonky.svg"
   inkscape:export-filename="/home/bengt/Projekte/FactoryTiles/bot/Twonky/64/Twonky.png"
   inkscape:export-xdpi="90"
   inkscape:export-ydpi="90">
  <metadata
     id="metadata8">
    <rdf:RDF>
      <cc:Work
         rdf:about="">
        <dc:format>image/svg+xml</dc:format>
        <dc:type
           rdf:resource="http://purl.org/dc/dcmitype/StillImage" />
        <dc:title />
      </cc:Work>
    </rdf:RDF>
  </metadata>
  <defs
     id="defs6" />
  <sodipodi:namedview
     pagecolor="#ffffff"
     bordercolor="#666666"
     borderopacity="1"
     objecttolerance="10"
     gridtolerance="10"
     guidetolerance="10"
     inkscape:pageopacity="0"
     inkscape:pageshadow="2"
     inkscape:window-width="1280"
     inkscape:window-height="946"
     id="namedview4"
     showgrid="true"
     borderlayer="true"
     inkscape:showpageshadow="false"
     inkscape:zoom="9.2913831"
     inkscape:cx="28.301161"
     inkscape:cy="35.964502"
     inkscape:window-x="0"
     inkscape:window-y="0"
     inkscape:window-maximized="1"
     inkscape:current-layer="svg2">
    <inkscape:grid
       type="xygrid"
       id="grid4101"
       empspacing="8"
       visible="true"
       enabled="true"
       snapvisiblegridlinesonly="true"
       spacingx="1px"
       spacingy="1px" />
  </sodipodi:namedview>
  <path
     sodipodi:type="arc"
     style="fill:#ffffff;fill-opacity:1;stroke:none"
     id="path4982"
     sodipodi:cx="0"
     sodipodi:cy="0"
     sodipodi:rx="0"
     sodipodi:ry="0"
     d="M 0,0 A 0,0 0 1 1 0,0 0,0 0 1 1 0,0 z" />
  <g
     id="g3032"
     transform="matrix(-1,0,0,-1,64,62.775256)">
    <g
       id="g3880">
      <rect
         style="fill:#000000;fill-opacity:1;stroke:none"
         id="rect3872"
         width="13"
         height="17"
         x="6.8516459"
         y="17.509874"
         rx="0"
         ry="0"
         transform="matrix(0.96592583,-0.25881905,0.25881905,0.96592583,0,0)" />
      <rect
         ry="0"
         rx="0"
         y="18.509874"
         x="7.8516459"
         height="15"
         width="11"
         id="rect3874"
         style="fill:#ffffff;fill-opacity:1;stroke:none"
         transform="matrix(0.96592583,-0.25881905,0.25881905,0.96592583,0,0)" />
    </g>
    <g
       id="g3884">
      <rect
         style="fill:#000000;fill-opacity:1;stroke:none"
         id="rect3876"
         width="13"
         height="17"
         x="38.170734"
         y="10.447968"
         rx="0"
         ry="0"
         transform="matrix(0.99832587,0.05783997,-0.05783997,0.99832587,0,0)" />
      <rect
         ry="0"
         rx="0"
         y="11.447968"
         x="39.170734"
         height="15"
         width="11"
         id="rect3878"
         style="fill:#ffffff;fill-opacity:1;stroke:none"
         transform="matrix(0.99832587,0.05783997,-0.05783997,0.99832587,0,0)" />
    </g>
    <g
       transform="translate(-2.7172852e-8,1)"
       id="g4906">
      <path
         sodipodi:type="arc"
         style="fill:#000000;fill-opacity:1;stroke:none"
         id="path4902"
         sodipodi:cx="19"
         sodipodi:cy="36"
         sodipodi:rx="4.4436703"
         sodipodi:ry="6"
         d="m 23.44367,36 c 0,3.313708 -1.989499,6 -4.44367,6 -2.454171,0 -4.44367,-2.686292 -4.44367,-6 0,-3.313708 1.989499,-6 4.44367,-6 2.454171,0 4.44367,2.686292 4.44367,6 z"
         transform="translate(-6.5563297,-3)" />
      <path
         transform="translate(-6.5563297,-3)"
         d="m 22.44367,36 c 0,2.761424 -1.541783,5 -3.44367,5 -1.901887,0 -3.44367,-2.238576 -3.44367,-5 0,-2.761424 1.541783,-5 3.44367,-5 1.901887,0 3.44367,2.238576 3.44367,5 z"
         sodipodi:ry="5"
         sodipodi:rx="3.4436703"
         sodipodi:cy="36"
         sodipodi:cx="19"
         id="path4904"
         style="fill:#ffffff;fill-opacity:1;stroke:none"
         sodipodi:type="arc" />
    </g>
    <path
       transform="translate(-5,0)"
       d="m 22,36 c 0,2.761424 -1.343146,5 -3,5 -1.656854,0 -3,-2.238576 -3,-5 0,-2.761424 1.343146,-5 3,-5 1.656854,0 3,2.238576 3,5 z"
       sodipodi:ry="5"
       sodipodi:rx="3"
       sodipodi:cy="36"
       sodipodi:cx="19"
       id="path4890"
       style="fill:#000000;fill-opacity:1;stroke:none"
       sodipodi:type="arc" />
    <path
       sodipodi:type="arc"
       style="fill:#000000;fill-opacity:1;stroke:none"
       id="path4894"
       sodipodi:cx="19"
       sodipodi:cy="36"
       sodipodi:rx="2"
       sodipodi:ry="4"
       d="m 21,36 c 0,2.209139 -0.895431,4 -2,4 -1.104569,0 -2,-1.790861 -2,-4 0,-2.209139 0.895431,-4 2,-4 1.104569,0 2,1.790861 2,4 z"
       transform="translate(-8,0)" />
    <path
       sodipodi:nodetypes="ccccc"
       inkscape:connector-curvature="0"
       id="path4910"
       d="m 11,32 2,-0.710747 0,9.383609 L 11,40 z"
       style="fill:#000000;fill-opacity:1;stroke:none" />
    <path
       sodipodi:type="arc"
       style="fill:#ffffff;fill-opacity:1;stroke:none"
       id="path4892"
       sodipodi:cx="19"
       sodipodi:cy="36"
       sodipodi:rx="2"
       sodipodi:ry="4"
       d="m 21,36 c 0,2.209139 -0.895431,4 -2,4 -1.104569,0 -2,-1.790861 -2,-4 0,-2.209139 0.895431,-4 2,-4 1.104569,0 2,1.790861 2,4 z"
       transform="translate(-5,0)" />
    <g
       transform="translate(1,0)"
       id="g4912">
      <path
         transform="translate(-4,0)"
         d="m 22,36 c 0,3.313708 -1.343146,6 -3,6 -1.656854,0 -3,-2.686292 -3,-6 0,-3.313708 1.343146,-6 3,-6 1.656854,0 3,2.686292 3,6 z"
         sodipodi:ry="6"
         sodipodi:rx="3"
         sodipodi:cy="36"
         sodipodi:cx="19"
         id="path4888"
         style="fill:#000000;fill-opacity:1;stroke:none"
         sodipodi:type="arc" />
      <path
         sodipodi:type="arc"
         style="fill:#ffffff;fill-opacity:1;stroke:none"
         id="path4886"
         sodipodi:cx="19"
         sodipodi:cy="36"
         sodipodi:rx="2"
         sodipodi:ry="5"
         d="m 21,36 c 0,2.761424 -0.895431,5 -2,5 -1.104569,0 -2,-2.238576 -2,-5 0,-2.761424 0.895431,-5 2,-5 1.104569,0 2,2.238576 2,5 z"
         transform="translate(-4,0)" />
    </g>
    <g
       transform="matrix(-1,0,0,1,114,-1)"
       id="g4936">
      <g
         transform="translate(50,2)"
         id="g4916">
        <path
           sodipodi:type="arc"
           style="fill:#000000;fill-opacity:1;stroke:none"
           id="path4918"
           sodipodi:cx="19"
           sodipodi:cy="36"
           sodipodi:rx="4.4436703"
           sodipodi:ry="6"
           d="m 23.44367,36 c 0,3.313708 -1.989499,6 -4.44367,6 -2.454171,0 -4.44367,-2.686292 -4.44367,-6 0,-3.313708 1.989499,-6 4.44367,-6 2.454171,0 4.44367,2.686292 4.44367,6 z"
           transform="translate(-6.5563297,-3)" />
        <path
           transform="translate(-6.5563297,-3)"
           d="m 22.44367,36 c 0,2.761424 -1.541783,5 -3.44367,5 -1.901887,0 -3.44367,-2.238576 -3.44367,-5 0,-2.761424 1.541783,-5 3.44367,-5 1.901887,0 3.44367,2.238576 3.44367,5 z"
           sodipodi:ry="5"
           sodipodi:rx="3.4436703"
           sodipodi:cy="36"
           sodipodi:cx="19"
           id="path4920"
           style="fill:#ffffff;fill-opacity:1;stroke:none"
           sodipodi:type="arc" />
      </g>
      <path
         transform="translate(45,1)"
         d="m 22,36 c 0,2.761424 -1.343146,5 -3,5 -1.656854,0 -3,-2.238576 -3,-5 0,-2.761424 1.343146,-5 3,-5 1.656854,0 3,2.238576 3,5 z"
         sodipodi:ry="5"
         sodipodi:rx="3"
         sodipodi:cy="36"
         sodipodi:cx="19"
         id="path4922"
         style="fill:#000000;fill-opacity:1;stroke:none"
         sodipodi:type="arc" />
      <path
         sodipodi:type="arc"
         style="fill:#000000;fill-opacity:1;stroke:none"
         id="path4924"
         sodipodi:cx="19"
         sodipodi:cy="36"
         sodipodi:rx="2"
         sodipodi:ry="4"
         d="m 21,36 c 0,2.209139 -0.895431,4 -2,4 -1.104569,0 -2,-1.790861 -2,-4 0,-2.209139 0.895431,-4 2,-4 1.104569,0 2,1.790861 2,4 z"
         transform="translate(42,1)" />
      <path
         sodipodi:nodetypes="ccccc"
         inkscape:connector-curvature="0"
         id="path4926"
         d="m 61,33 2,-0.710747 0,9.383609 L 61,41 z"
         style="fill:#000000;fill-opacity:1;stroke:none" />
      <path
         sodipodi:type="arc"
         style="fill:#ffffff;fill-opacity:1;stroke:none"
         id="path4928"
         sodipodi:cx="19"
         sodipodi:cy="36"
         sodipodi:rx="2"
         sodipodi:ry="4"
         d="m 21,36 c 0,2.209139 -0.895431,4 -2,4 -1.104569,0 -2,-1.790861 -2,-4 0,-2.209139 0.895431,-4 2,-4 1.104569,0 2,1.790861 2,4 z"
         transform="translate(45,1)" />
      <g
         transform="translate(51,1)"
         id="g4930">
        <path
           transform="translate(-4,0)"
           d="m 22,36 c 0,3.313708 -1.343146,6 -3,6 -1.656854,0 -3,-2.686292 -3,-6 0,-3.313708 1.343146,-6 3,-6 1.656854,0 3,2.686292 3,6 z"
           sodipodi:ry="6"
           sodipodi:rx="3"
           sodipodi:cy="36"
           sodipodi:cx="19"
           id="path4932"
           style="fill:#000000;fill-opacity:1;stroke:none"
           sodipodi:type="arc" />
        <path
           sodipodi:type="arc"
           style="fill:#ffffff;fill-opacity:1;stroke:none"
           id="path4934"
           sodipodi:cx="19"
           sodipodi:cy="36"
           sodipodi:rx="2"
           sodipodi:ry="5"
           d="m 21,36 c 0,2.761424 -0.895431,5 -2,5 -1.104569,0 -2,-2.238576 -2,-5 0,-2.761424 0.895431,-5 2,-5 1.104569,0 2,2.238576 2,5 z"
           transform="translate(-4,0)" />
      </g>
    </g>
    <rect
       ry="0"
       rx="0"
       y="22"
       x="15"
       height="28"
       width="34"
       id="rect4103"
       style="fill:#000000;fill-opacity:1;stroke:none" />
    <rect
       style="fill:#ffffff;fill-opacity:1;stroke:none"
       id="rect4873"
       width="32"
       height="26"
       x="16"
       y="23"
       rx="0"
       ry="0" />
    <path
       sodipodi:nodetypes="ccccc"
       inkscape:connector-curvature="0"
       id="path4875"
       d="m 15,22 1,-3 32,0 1,3 z"
       style="fill:#000000;fill-opacity:1;stroke:none" />
    <path
       sodipodi:nodetypes="ccccccccc"
       inkscape:connector-curvature="0"
       id="path4877"
       d="M 21.625,20 21,22 26,22 38,22 48,22 47.375,20 38,20 26,20 z"
       style="fill:#ffffff;fill-opacity:1;stroke:none" />
    <path
       transform="translate(-7,4)"
       d="m 31,36 c 0,1.656854 -1.343146,3 -3,3 -1.656854,0 -3,-1.343146 -3,-3 0,-1.656854 1.343146,-3 3,-3 1.656854,0 3,1.343146 3,3 z"
       sodipodi:ry="3"
       sodipodi:rx="3"
       sodipodi:cy="36"
       sodipodi:cx="28"
       id="path4882"
       style="fill:#000000;fill-opacity:1;stroke:none"
       sodipodi:type="arc" />
    <path
       transform="translate(-7,4)"
       sodipodi:type="arc"
       style="fill:#ffffff;fill-opacity:1;stroke:none"
       id="path4884"
       sodipodi:cx="28"
       sodipodi:cy="36"
       sodipodi:rx="2"
       sodipodi:ry="2"
       d="m 30,36 c 0,1.104569 -0.895431,2 -2,2 -1.104569,0 -2,-0.895431 -2,-2 0,-1.104569 0.895431,-2 2,-2 1.104569,0 2,0.895431 2,2 z" />
    <rect
       y="49"
       x="17"
       height="2"
       width="4"
       id="rect4948"
       style="fill:#000000;fill-opacity:1;stroke:none" />
    <rect
       style="fill:#000000;fill-opacity:1;stroke:none"
       id="rect4950"
       width="4"
       height="2"
       x="43"
       y="49" />
    <g
       transform="translate(0,-6)"
       id="g4956">
      <path
         transform="translate(0,2)"
         sodipodi:type="arc"
         style="fill:#000000;fill-opacity:1;stroke:none"
         id="path4952"
         sodipodi:cx="32"
         sodipodi:cy="24"
         sodipodi:rx="12"
         sodipodi:ry="2"
         d="m 44,24 c 0,1.104569 -5.372583,2 -12,2 -6.627417,0 -12,-0.895431 -12,-2 0,-1.104569 5.372583,-2 12,-2 6.627417,0 12,0.895431 12,2 z" />
      <path
         transform="translate(0,2)"
         d="m 42.582987,24 c 0,0.552285 -4.738165,1 -10.582987,1 -5.844822,0 -10.582987,-0.447715 -10.582987,-1 0,-0.552285 4.738165,-1 10.582987,-1 5.844822,0 10.582987,0.447715 10.582987,1 z"
         sodipodi:ry="1"
         sodipodi:rx="10.582987"
         sodipodi:cy="24"
         sodipodi:cx="32"
         id="path4954"
         style="fill:#ffffff;fill-opacity:1;stroke:none"
         sodipodi:type="arc" />
      <path
         d="m 44,24 c 0,1.104569 -5.372583,2 -12,2 -6.627417,0 -12,-0.895431 -12,-2 0,-1.104569 5.372583,-2 12,-2 6.627417,0 12,0.895431 12,2 z"
         sodipodi:ry="2"
         sodipodi:rx="12"
         sodipodi:cy="24"
         sodipodi:cx="32"
         id="path4964"
         style="fill:#000000;fill-opacity:1;stroke:none"
         sodipodi:type="arc"
         transform="translate(0,2)" />
      <path
         sodipodi:type="arc"
         style="fill:#ffffff;fill-opacity:1;stroke:none"
         id="path4966"
         sodipodi:cx="32"
         sodipodi:cy="24"
         sodipodi:rx="10.582987"
         sodipodi:ry="1"
         d="m 42.582987,24 c 0,0.552285 -4.738165,1 -10.582987,1 -5.844822,0 -10.582987,-0.447715 -10.582987,-1 0,-0.552285 4.738165,-1 10.582987,-1 5.844822,0 10.582987,0.447715 10.582987,1 z"
         transform="translate(0,2)" />
    </g>
    <path
       sodipodi:nodetypes="ccccc"
       style="fill:#ffffff;fill-opacity:1;stroke:none"
       d="M 16.524353,21 16,22 l 4,0 0.190259,-1 z"
       id="path4962"
       inkscape:connector-curvature="0" />
    <path
       d="M 37,25.5 C 37,26.328427 35.880712,27 34.5,27 33.119288,27 32,26.328427 32,25.5 32,24.671573 33.119288,24 34.5,24 c 1.380712,0 2.5,0.671573 2.5,1.5 z"
       sodipodi:ry="1.5"
       sodipodi:rx="2.5"
       sodipodi:cy="25.5"
       sodipodi:cx="34.5"
       id="path4978"
       style="fill:#ffffff;fill-opacity:1;stroke:none"
       sodipodi:type="arc" />
    <path
       sodipodi:type="arc"
       style="fill:#ffffff;fill-opacity:1;stroke:none"
       id="path4980"
       sodipodi:cx="34.5"
       sodipodi:cy="25.5"
       sodipodi:rx="2.5"
       sodipodi:ry="1.5"
       d="M 37,25.5 C 37,26.328427 35.880712,27 34.5,27 33.119288,27 32,26.328427 32,25.5 32,24.671573 33.119288,24 34.5,24 c 1.380712,0 2.5,0.671573 2.5,1.5 z" />
    <g
       transform="translate(-0.25090253,0)"
       id="g3856">
      <path
         d="M 39,25.5 C 39,26.328427 37.432997,27 35.5,27 33.567003,27 32,26.328427 32,25.5 32,24.671573 33.567003,24 35.5,24 c 1.932997,0 3.5,0.671573 3.5,1.5 z"
         sodipodi:ry="1.5"
         sodipodi:rx="3.5"
         sodipodi:cy="25.5"
         sodipodi:cx="35.5"
         id="path3848"
         style="fill:#000000;fill-opacity:1;stroke:none"
         sodipodi:type="arc"
         transform="translate(0.7797834,-6)" />
      <path
         transform="translate(0.75090253,-9)"
         d="M 38,28.5 C 38,28.776142 36.880712,29 35.5,29 34.119288,29 33,28.776142 33,28.5 33,28.223858 34.119288,28 35.5,28 c 1.380712,0 2.5,0.223858 2.5,0.5 z"
         sodipodi:ry="0.5"
         sodipodi:rx="2.5"
         sodipodi:cy="28.5"
         sodipodi:cx="35.5"
         id="path3850"
         style="fill:#ffffff;fill-opacity:1;stroke:none"
         sodipodi:type="arc" />
    </g>
    <g
       transform="translate(0.5,0)"
       id="g3860">
      <path
         transform="translate(-7.9711191,-6)"
         sodipodi:type="arc"
         style="fill:#000000;fill-opacity:1;stroke:none"
         id="path3852"
         sodipodi:cx="35.5"
         sodipodi:cy="25.5"
         sodipodi:rx="3.5"
         sodipodi:ry="1.5"
         d="M 39,25.5 C 39,26.328427 37.432997,27 35.5,27 33.567003,27 32,26.328427 32,25.5 32,24.671573 33.567003,24 35.5,24 c 1.932997,0 3.5,0.671573 3.5,1.5 z" />
      <path
         sodipodi:type="arc"
         style="fill:#ffffff;fill-opacity:1;stroke:none"
         id="path3854"
         sodipodi:cx="35.5"
         sodipodi:cy="28.5"
         sodipodi:rx="2.5"
         sodipodi:ry="0.5"
         d="M 38,28.5 C 38,28.776142 36.880712,29 35.5,29 34.119288,29 33,28.776142 33,28.5 33,28.223858 34.119288,28 35.5,28 c 1.380712,0 2.5,0.223858 2.5,0.5 z"
         transform="translate(-8,-9)" />
    </g>
  </g>
</svg>
