<?xml version="1.0" encoding="UTF-8" standalone="no"?>
<!-- Created with Inkscape (http://www.inkscape.org/) -->

<svg
   xmlns:dc="http://purl.org/dc/elements/1.1/"
   xmlns:cc="http://creativecommons.org/ns#"
   xmlns:rdf="http://www.w3.org/1999/02/22-rdf-syntax-ns#"
   xmlns:svg="http://www.w3.org/2000/svg"
   xmlns="http://www.w3.org/2000/svg"
   xmlns:sodipodi="http://sodipodi.sourceforge.net/DTD/sodipodi-0.dtd"
   xmlns:inkscape="http://www.inkscape.org/namespaces/inkscape"
   id="svg2"
   version="1.1"
   inkscape:version="0.48.0 r9654"
   width="64"
   height="64"
   sodipodi:docname="Trundle_Bot.svg"
   inkscape:export-filename="/home/bengt/Projekte/FactoryTiles/bot/Trundle_Bot/64/Trundle_Bot.png"
   inkscape:export-xdpi="90"
   inkscape:export-ydpi="90">
  <metadata
     id="metadata8">
    <rdf:RDF>
      <cc:Work
         rdf:about="">
        <dc:format>image/svg+xml</dc:format>
        <dc:type
           rdf:resource="http://purl.org/dc/dcmitype/StillImage" />
      </cc:Work>
    </rdf:RDF>
  </metadata>
  <defs
     id="defs6" />
  <sodipodi:namedview
     pagecolor="#ffffff"
     bordercolor="#666666"
     borderopacity="1"
     objecttolerance="10"
     gridtolerance="10"
     guidetolerance="10"
     inkscape:pageopacity="0"
     inkscape:pageshadow="2"
     inkscape:window-width="1280"
     inkscape:window-height="946"
     id="namedview4"
     showgrid="true"
     borderlayer="true"
     inkscape:showpageshadow="false"
     inkscape:zoom="12.4"
     inkscape:cx="28.561536"
     inkscape:cy="26.912762"
     inkscape:window-x="0"
     inkscape:window-y="0"
     inkscape:window-maximized="1"
     inkscape:current-layer="svg2">
    <inkscape:grid
       type="xygrid"
       id="grid2987"
       empspacing="8"
       visible="true"
       enabled="true"
       snapvisiblegridlinesonly="true" />
  </sodipodi:namedview>
  <g
     transform="translate(7,27)"
     id="g3899">
    <g
       id="g3901">
      <rect
         style="fill:#000000;fill-opacity:1;stroke:none"
         id="rect3903"
         width="18"
         height="6"
         x="31"
         y="55"
         ry="3"
         rx="1" />
      <rect
         rx="0.54961354"
         ry="2"
         y="56"
         x="32"
         height="4"
         width="16"
         id="rect3905"
         style="fill:#ffffff;fill-opacity:1;stroke:none" />
    </g>
  </g>
  <g
     id="g3911">
    <g
       id="g3919"
       transform="matrix(0.41666667,0,0,0.52272729,22.083333,41.227271)">
      <path
         sodipodi:type="arc"
         style="fill:#000000;fill-opacity:1;stroke:none"
         id="path3907"
         sodipodi:cx="20"
         sodipodi:cy="20"
         sodipodi:rx="6"
         sodipodi:ry="6"
         d="m 26,20 c 0,3.313708 -2.686292,6 -6,6 -3.313708,0 -6,-2.686292 -6,-6 0,-3.313708 2.686292,-6 6,-6 3.313708,0 6,2.686292 6,6 z"
         transform="translate(11,64)" />
      <path
         transform="translate(11,64)"
         d="m 23.661811,20 c 0,2.257163 -1.639449,4.086956 -3.661811,4.086956 -2.022362,0 -3.661811,-1.829793 -3.661811,-4.086956 0,-2.257163 1.639449,-4.086956 3.661811,-4.086956 2.022362,0 3.661811,1.829793 3.661811,4.086956 z"
         sodipodi:ry="4.086956"
         sodipodi:rx="3.6618111"
         sodipodi:cy="20"
         sodipodi:cx="20"
         id="path3909"
         style="fill:#ffffff;fill-opacity:1;stroke:none"
         sodipodi:type="arc" />
    </g>
  </g>
  <g
     id="g4021">
    <rect
       style="fill:#000000;fill-opacity:1;stroke:none"
       id="rect3968"
       width="13"
       height="6"
       x="43"
       y="89"
       ry="2.8726852"
       rx="1" />
    <rect
       rx="0.54961354"
       ry="1.8573059"
       y="90"
       x="44"
       height="4"
       width="11"
       id="rect3970"
       style="fill:#ffffff;fill-opacity:1;stroke:none" />
  </g>
  <g
     id="g3057"
     transform="matrix(-1,0,0,-1,64.07589,65)">
    <rect
       style="fill:#000000;fill-opacity:1;stroke:none"
       id="rect3759"
       width="15"
       height="41"
       x="8"
       y="12" />
    <rect
       y="13"
       x="9"
       height="39"
       width="13"
       id="rect2989"
       style="fill:#ffffff;fill-opacity:1;stroke:none" />
    <rect
       y="12"
       x="41"
       height="41"
       width="15"
       id="rect3761"
       style="fill:#000000;fill-opacity:1;stroke:none" />
    <rect
       style="fill:#ffffff;fill-opacity:1;stroke:none"
       id="rect3763"
       width="13"
       height="39"
       x="42"
       y="13" />
    <rect
       y="18"
       x="9"
       height="1"
       width="13"
       id="rect3765"
       style="fill:#000000;fill-opacity:1;stroke:none" />
    <rect
       style="fill:#000000;fill-opacity:1;stroke:none"
       id="rect3767"
       width="13"
       height="1"
       x="9"
       y="24" />
    <rect
       style="fill:#000000;fill-opacity:1;stroke:none"
       id="rect3769"
       width="13"
       height="1"
       x="9"
       y="30" />
    <rect
       y="36"
       x="9"
       height="1"
       width="13"
       id="rect3771"
       style="fill:#000000;fill-opacity:1;stroke:none" />
    <g
       transform="matrix(-0.70710678,0.70710678,-0.70710678,-0.70710678,56.012599,13.561341)"
       id="g4092">
      <rect
         style="fill:#000000;fill-opacity:1;stroke:none"
         id="rect4094"
         width="7.4861112"
         height="6"
         x="37.513889"
         y="16"
         rx="1"
         ry="1.8541666" />
      <rect
         style="fill:#ffffff;fill-opacity:1;stroke:none"
         id="rect4096"
         width="5.3981481"
         height="4"
         x="38.601852"
         y="17"
         rx="0.54961354"
         ry="1.9768518" />
    </g>
    <g
       inkscape:transform-center-y="-4.2050459"
       inkscape:transform-center-x="1.6446441"
       transform="matrix(0.5,0.8660254,-0.8660254,0.5,6.8899391,-14.834384)"
       id="g4070">
      <rect
         transform="matrix(0.96592583,0.25881905,-0.25881905,0.96592583,0,0)"
         style="fill:#000000;fill-opacity:1;stroke:none"
         id="rect4072"
         width="13"
         height="6"
         x="45.043484"
         y="4.1175427"
         ry="2.8726852"
         rx="1" />
      <rect
         transform="matrix(0.96592583,0.25881905,-0.25881905,0.96592583,0,0)"
         rx="0.54961354"
         ry="1.8573059"
         y="5.1175427"
         x="46.043484"
         height="4"
         width="11"
         id="rect4074"
         style="fill:#ffffff;fill-opacity:1;stroke:none" />
    </g>
    <rect
       y="42"
       x="9"
       height="1"
       width="13"
       id="rect3773"
       style="fill:#000000;fill-opacity:1;stroke:none" />
    <rect
       style="fill:#000000;fill-opacity:1;stroke:none"
       id="rect3775"
       width="13"
       height="1"
       x="9"
       y="48" />
    <rect
       style="fill:#000000;fill-opacity:1;stroke:none"
       id="rect3777"
       width="13"
       height="1"
       x="42"
       y="17" />
    <rect
       y="23"
       x="42"
       height="1"
       width="13"
       id="rect3779"
       style="fill:#000000;fill-opacity:1;stroke:none" />
    <rect
       y="29"
       x="42"
       height="1"
       width="13"
       id="rect3781"
       style="fill:#000000;fill-opacity:1;stroke:none" />
    <rect
       style="fill:#000000;fill-opacity:1;stroke:none"
       id="rect3783"
       width="13"
       height="1"
       x="42"
       y="35" />
    <rect
       style="fill:#000000;fill-opacity:1;stroke:none"
       id="rect3785"
       width="13"
       height="1"
       x="42"
       y="41" />
    <rect
       y="47"
       x="42"
       height="1"
       width="13"
       id="rect3787"
       style="fill:#000000;fill-opacity:1;stroke:none" />
    <path
       sodipodi:nodetypes="ccccccccc"
       inkscape:connector-curvature="0"
       id="path3789"
       d="m 22,49 20,0 1,-8 0,-20 -1,-6 -20,0 -1,6 0,20 z"
       style="fill:#000000;fill-opacity:1;stroke:none" />
    <path
       sodipodi:nodetypes="ccccccccc"
       style="fill:#ffffff;fill-opacity:1;stroke:none"
       d="m 23,48 18,0 1,-7 0,-20 -1,-5 -18,0 -1,5 0,20 z"
       id="path3791"
       inkscape:connector-curvature="0" />
    <rect
       y="21"
       x="21"
       height="17"
       width="22"
       id="rect3797"
       style="fill:#000000;fill-opacity:1;stroke:none" />
    <g
       inkscape:transform-center-y="5.196152"
       id="g4128"
       transform="matrix(-0.5,0.8660254,-0.8660254,-0.5,89.229473,29.555136)"
       inkscape:transform-center-x="3.0000002">
      <g
         id="g4130">
        <rect
           rx="1"
           ry="3"
           y="55"
           x="31"
           height="6"
           width="18"
           id="rect4132"
           style="fill:#000000;fill-opacity:1;stroke:none" />
        <rect
           style="fill:#ffffff;fill-opacity:1;stroke:none"
           id="rect4134"
           width="16"
           height="4"
           x="32"
           y="56"
           ry="2"
           rx="0.54961354" />
      </g>
    </g>
    <g
       transform="translate(-12,0)"
       id="g3878">
      <path
         transform="translate(18,10)"
         d="m 26,20 c 0,3.313708 -2.686292,6 -6,6 -3.313708,0 -6,-2.686292 -6,-6 0,-3.313708 2.686292,-6 6,-6 3.313708,0 6,2.686292 6,6 z"
         sodipodi:ry="6"
         sodipodi:rx="6"
         sodipodi:cy="20"
         sodipodi:cx="20"
         id="path3880"
         style="fill:#000000;fill-opacity:1;stroke:none"
         sodipodi:type="arc" />
      <path
         sodipodi:type="arc"
         style="fill:#ffffff;fill-opacity:1;stroke:none"
         id="path3882"
         sodipodi:cx="20"
         sodipodi:cy="20"
         sodipodi:rx="5"
         sodipodi:ry="5"
         d="m 25,20 c 0,2.761424 -2.238576,5 -5,5 -2.761424,0 -5,-2.238576 -5,-5 0,-2.761424 2.238576,-5 5,-5 2.761424,0 5,2.238576 5,5 z"
         transform="translate(18,10)" />
    </g>
    <g
       transform="translate(0.10994827,0.56909292)"
       id="g4038">
      <rect
         transform="matrix(0.96592583,0.25881905,-0.25881905,0.96592583,0,0)"
         style="fill:#000000;fill-opacity:1;stroke:none"
         id="rect4027"
         width="13"
         height="6"
         x="45.043484"
         y="4.1175427"
         ry="2.8726852"
         rx="1" />
      <rect
         transform="matrix(0.96592583,0.25881905,-0.25881905,0.96592583,0,0)"
         rx="0.54961354"
         ry="1.8573059"
         y="5.1175427"
         x="46.043484"
         height="4"
         width="11"
         id="rect4029"
         style="fill:#ffffff;fill-opacity:1;stroke:none" />
    </g>
    <g
       transform="translate(19,-63)"
       id="g3942">
      <g
         inkscape:transform-center-x="0.74619569"
         inkscape:transform-center-y="-2.7647069"
         id="g3944"
         transform="matrix(0.4022722,-0.10857344,0.13621032,0.50466877,10.61485,46.371175)">
        <path
           sodipodi:type="arc"
           style="fill:#000000;fill-opacity:1;stroke:none"
           id="path3946"
           sodipodi:cx="20"
           sodipodi:cy="20"
           sodipodi:rx="6"
           sodipodi:ry="6"
           d="m 26,20 c 0,3.313708 -2.686292,6 -6,6 -3.313708,0 -6,-2.686292 -6,-6 0,-3.313708 2.686292,-6 6,-6 3.313708,0 6,2.686292 6,6 z"
           transform="translate(11,64)" />
        <path
           transform="translate(11,64)"
           d="m 23.661811,20 c 0,2.257163 -1.639449,4.086956 -3.661811,4.086956 -2.022362,0 -3.661811,-1.829793 -3.661811,-4.086956 0,-2.257163 1.639449,-4.086956 3.661811,-4.086956 2.022362,0 3.661811,1.829793 3.661811,4.086956 z"
           sodipodi:ry="4.086956"
           sodipodi:rx="3.6618111"
           sodipodi:cy="20"
           sodipodi:cx="20"
           id="path3948"
           style="fill:#ffffff;fill-opacity:1;stroke:none"
           sodipodi:type="arc" />
      </g>
    </g>
    <g
       inkscape:transform-center-y="-3.0000002"
       inkscape:transform-center-x="-5.196152"
       transform="matrix(0.8660254,-0.5,0.5,0.8660254,-17.569219,-3.4974224)"
       id="g3934">
      <g
         id="g3936">
        <rect
           style="fill:#000000;fill-opacity:1;stroke:none"
           id="rect3938"
           width="18"
           height="6"
           x="31"
           y="55"
           ry="3"
           rx="1" />
        <rect
           rx="0.54961354"
           ry="2"
           y="56"
           x="32"
           height="4"
           width="16"
           id="rect3940"
           style="fill:#ffffff;fill-opacity:1;stroke:none" />
      </g>
    </g>
    <g
       id="g3874">
      <path
         sodipodi:type="arc"
         style="fill:#000000;fill-opacity:1;stroke:none"
         id="path3868"
         sodipodi:cx="20"
         sodipodi:cy="20"
         sodipodi:rx="6"
         sodipodi:ry="6"
         d="m 26,20 c 0,3.313708 -2.686292,6 -6,6 -3.313708,0 -6,-2.686292 -6,-6 0,-3.313708 2.686292,-6 6,-6 3.313708,0 6,2.686292 6,6 z"
         transform="translate(18,10)" />
      <path
         transform="translate(18,10)"
         d="m 25,20 c 0,2.761424 -2.238576,5 -5,5 -2.761424,0 -5,-2.238576 -5,-5 0,-2.761424 2.238576,-5 5,-5 2.761424,0 5,2.238576 5,5 z"
         sodipodi:ry="5"
         sodipodi:rx="5"
         sodipodi:cy="20"
         sodipodi:cx="20"
         id="path3870"
         style="fill:#ffffff;fill-opacity:1;stroke:none"
         sodipodi:type="arc" />
    </g>
    <rect
       style="fill:#000000;fill-opacity:1;stroke:none"
       id="rect3826"
       width="20"
       height="1"
       x="22"
       y="22" />
    <rect
       y="40"
       x="22"
       height="1"
       width="20"
       id="rect3793"
       style="fill:#000000;fill-opacity:1;stroke:none" />
    <rect
       y="22"
       x="22"
       height="16"
       width="20"
       id="rect3872"
       style="fill:#000000;fill-opacity:1;stroke:none" />
    <rect
       y="22"
       x="23"
       height="12"
       width="18"
       id="rect3801"
       style="fill:#ffffff;fill-opacity:1;stroke:none" />
    <rect
       style="fill:#000000;fill-opacity:1;stroke:none"
       id="rect3799"
       width="14"
       height="14"
       x="25"
       y="17" />
    <rect
       style="fill:#ffffff;fill-opacity:1;stroke:none"
       id="rect3807"
       width="12"
       height="12"
       x="26"
       y="18" />
    <path
       style="fill:#000000;fill-opacity:1;stroke:none"
       d="m 25,31 14,0 -1,2 -12,0 z"
       id="path3809"
       inkscape:connector-curvature="0"
       sodipodi:nodetypes="ccccc" />
    <path
       id="path3803"
       d="M 26,31 26.53125,32 32,32 37.46875,32 38,31 l -6,0 -6,0 z"
       style="fill:#ffffff;fill-opacity:1;stroke:none"
       inkscape:connector-curvature="0" />
    <path
       sodipodi:type="arc"
       style="fill:#000000;fill-opacity:1;stroke:none"
       id="path3824"
       sodipodi:cx="20"
       sodipodi:cy="20"
       sodipodi:rx="6"
       sodipodi:ry="6"
       d="m 26,20 c 0,3.313708 -2.686292,6 -6,6 -3.313708,0 -6,-2.686292 -6,-6 0,-3.313708 2.686292,-6 6,-6 3.313708,0 6,2.686292 6,6 z"
       transform="translate(12,4)" />
    <path
       transform="translate(12,4)"
       d="m 25,20 c 0,2.761424 -2.238576,5 -5,5 -2.761424,0 -5,-2.238576 -5,-5 0,-2.761424 2.238576,-5 5,-5 2.761424,0 5,2.238576 5,5 z"
       sodipodi:ry="5"
       sodipodi:rx="5"
       sodipodi:cy="20"
       sodipodi:cx="20"
       id="path3822"
       style="fill:#ffffff;fill-opacity:1;stroke:none"
       sodipodi:type="arc" />
    <rect
       y="35"
       x="23"
       height="2"
       width="18"
       id="rect3866"
       style="fill:#ffffff;fill-opacity:1;stroke:none" />
    <g
       id="g4066">
      <rect
         ry="1.8541666"
         rx="1"
         y="16"
         x="37.513889"
         height="6"
         width="7.4861112"
         id="rect3962"
         style="fill:#000000;fill-opacity:1;stroke:none" />
      <rect
         ry="1.9768518"
         rx="0.54961354"
         y="17"
         x="38.601852"
         height="4"
         width="5.3981481"
         id="rect4064"
         style="fill:#ffffff;fill-opacity:1;stroke:none" />
    </g>
    <g
       inkscape:transform-center-x="0.067428496"
       inkscape:transform-center-y="-0.52117392"
       transform="matrix(-0.38474962,0.92302098,-0.92302098,-0.38474962,107.30777,43.474962)"
       id="g4076">
      <g
         inkscape:transform-center-x="0.74619569"
         inkscape:transform-center-y="-2.7647069"
         id="g4078"
         transform="matrix(0.4022722,-0.10857344,0.13621032,0.50466877,10.61485,46.371175)">
        <path
           sodipodi:type="arc"
           style="fill:#000000;fill-opacity:1;stroke:none"
           id="path4080"
           sodipodi:cx="20"
           sodipodi:cy="20"
           sodipodi:rx="6"
           sodipodi:ry="6"
           d="m 26,20 c 0,3.313708 -2.686292,6 -6,6 -3.313708,0 -6,-2.686292 -6,-6 0,-3.313708 2.686292,-6 6,-6 3.313708,0 6,2.686292 6,6 z"
           transform="translate(11,64)" />
        <path
           transform="translate(11,64)"
           d="m 23.661811,20 c 0,2.257163 -1.639449,4.086956 -3.661811,4.086956 -2.022362,0 -3.661811,-1.829793 -3.661811,-4.086956 0,-2.257163 1.639449,-4.086956 3.661811,-4.086956 2.022362,0 3.661811,1.829793 3.661811,4.086956 z"
           sodipodi:ry="4.086956"
           sodipodi:rx="3.6618111"
           sodipodi:cy="20"
           sodipodi:cx="20"
           id="path4082"
           style="fill:#ffffff;fill-opacity:1;stroke:none"
           sodipodi:type="arc" />
      </g>
    </g>
  </g>
</svg>
