<?xml version="1.0" encoding="UTF-8" standalone="no"?>
<!-- Created with Inkscape (http://www.inkscape.org/) -->

<svg
   xmlns:dc="http://purl.org/dc/elements/1.1/"
   xmlns:cc="http://creativecommons.org/ns#"
   xmlns:rdf="http://www.w3.org/1999/02/22-rdf-syntax-ns#"
   xmlns:svg="http://www.w3.org/2000/svg"
   xmlns="http://www.w3.org/2000/svg"
   xmlns:sodipodi="http://sodipodi.sourceforge.net/DTD/sodipodi-0.dtd"
   xmlns:inkscape="http://www.inkscape.org/namespaces/inkscape"
   id="svg2"
   version="1.1"
   inkscape:version="0.48.0 r9654"
   width="64"
   height="64"
   sodipodi:docname="Twitch.svg"
   inkscape:export-filename="/home/bengt/Projekte/FactoryTiles/bot/Twitch/64/Twitch.png"
   inkscape:export-xdpi="90"
   inkscape:export-ydpi="90">
  <metadata
     id="metadata8">
    <rdf:RDF>
      <cc:Work
         rdf:about="">
        <dc:format>image/svg+xml</dc:format>
        <dc:type
           rdf:resource="http://purl.org/dc/dcmitype/StillImage" />
        <dc:title />
      </cc:Work>
    </rdf:RDF>
  </metadata>
  <defs
     id="defs6">
    <inkscape:perspective
       sodipodi:type="inkscape:persp3d"
       inkscape:vp_x="0 : 0.5 : 1"
       inkscape:vp_y="0 : 1000 : 0"
       inkscape:vp_z="1 : 0.5 : 1"
       inkscape:persp3d-origin="0.5 : 0.33333333 : 1"
       id="perspective10" />
  </defs>
  <sodipodi:namedview
     pagecolor="#ffffff"
     bordercolor="#666666"
     borderopacity="1"
     objecttolerance="10"
     gridtolerance="10"
     guidetolerance="10"
     inkscape:pageopacity="0"
     inkscape:pageshadow="2"
     inkscape:window-width="1280"
     inkscape:window-height="946"
     id="namedview4"
     showgrid="true"
     borderlayer="true"
     inkscape:showpageshadow="false"
     inkscape:zoom="10.535891"
     inkscape:cx="40.650967"
     inkscape:cy="32.307938"
     inkscape:window-x="0"
     inkscape:window-y="0"
     inkscape:window-maximized="1"
     inkscape:current-layer="svg2">
    <inkscape:grid
       type="xygrid"
       id="grid2818"
       empspacing="8"
       visible="true"
       enabled="true"
       snapvisiblegridlinesonly="true"
       spacingy="1px"
       spacingx="1px" />
  </sodipodi:namedview>
  <g
     id="g3069"
     transform="matrix(-1,0,0,-1,64,64)">
    <g
       id="g3606"
       transform="translate(28,0)">
      <rect
         style="fill:#000000;fill-opacity:1;stroke:none"
         id="rect3608"
         width="13"
         height="48"
         x="11"
         y="8" />
      <rect
         y="9"
         x="12"
         height="46"
         width="11"
         id="rect3610"
         style="fill:#ffffff;fill-opacity:1;stroke:none" />
    </g>
    <rect
       y="10"
       x="40"
       height="1"
       width="11"
       id="rect3728"
       style="fill:#000000;fill-opacity:1;stroke:none" />
    <rect
       style="fill:#000000;fill-opacity:1;stroke:none"
       id="rect3730"
       width="11"
       height="1"
       x="40"
       y="12" />
    <rect
       y="14"
       x="40"
       height="1"
       width="11"
       id="rect3732"
       style="fill:#000000;fill-opacity:1;stroke:none" />
    <rect
       style="fill:#000000;fill-opacity:1;stroke:none"
       id="rect3734"
       width="11"
       height="1"
       x="40"
       y="16" />
    <rect
       y="18"
       x="40"
       height="1"
       width="11"
       id="rect3736"
       style="fill:#000000;fill-opacity:1;stroke:none" />
    <rect
       style="fill:#000000;fill-opacity:1;stroke:none"
       id="rect3738"
       width="11"
       height="1"
       x="40"
       y="20" />
    <rect
       y="22"
       x="40"
       height="1"
       width="11"
       id="rect3740"
       style="fill:#000000;fill-opacity:1;stroke:none" />
    <rect
       style="fill:#000000;fill-opacity:1;stroke:none"
       id="rect3742"
       width="11"
       height="1"
       x="40"
       y="24" />
    <rect
       y="26"
       x="40"
       height="1"
       width="11"
       id="rect3744"
       style="fill:#000000;fill-opacity:1;stroke:none" />
    <rect
       style="fill:#000000;fill-opacity:1;stroke:none"
       id="rect3746"
       width="11"
       height="1"
       x="40"
       y="29" />
    <rect
       y="31"
       x="40"
       height="1"
       width="11"
       id="rect3748"
       style="fill:#000000;fill-opacity:1;stroke:none" />
    <rect
       style="fill:#000000;fill-opacity:1;stroke:none"
       id="rect3750"
       width="11"
       height="1"
       x="40"
       y="33" />
    <rect
       y="35"
       x="40"
       height="1"
       width="11"
       id="rect3752"
       style="fill:#000000;fill-opacity:1;stroke:none" />
    <rect
       style="fill:#000000;fill-opacity:1;stroke:none"
       id="rect3754"
       width="11"
       height="1"
       x="40"
       y="37" />
    <rect
       y="39"
       x="40"
       height="1"
       width="11"
       id="rect3756"
       style="fill:#000000;fill-opacity:1;stroke:none" />
    <g
       id="g3596">
      <rect
         style="fill:#000000;fill-opacity:1;stroke:none"
         id="rect2820"
         width="13"
         height="48"
         x="12"
         y="8" />
      <rect
         y="9"
         x="13"
         height="46"
         width="11"
         id="rect3594"
         style="fill:#ffffff;fill-opacity:1;stroke:none" />
    </g>
    <rect
       y="10"
       x="13"
       height="1"
       width="11"
       id="rect3634"
       style="fill:#000000;fill-opacity:1;stroke:none" />
    <rect
       style="fill:#000000;fill-opacity:1;stroke:none"
       id="rect3636"
       width="11"
       height="1"
       x="13"
       y="12" />
    <rect
       y="14"
       x="13"
       height="1"
       width="11"
       id="rect3638"
       style="fill:#000000;fill-opacity:1;stroke:none" />
    <rect
       style="fill:#000000;fill-opacity:1;stroke:none"
       id="rect3640"
       width="11"
       height="1"
       x="13"
       y="16" />
    <rect
       y="18"
       x="13"
       height="1"
       width="11"
       id="rect3642"
       style="fill:#000000;fill-opacity:1;stroke:none" />
    <rect
       style="fill:#000000;fill-opacity:1;stroke:none"
       id="rect3644"
       width="11"
       height="1"
       x="13"
       y="20" />
    <rect
       y="22"
       x="13"
       height="1"
       width="11"
       id="rect3646"
       style="fill:#000000;fill-opacity:1;stroke:none" />
    <rect
       style="fill:#000000;fill-opacity:1;stroke:none"
       id="rect3648"
       width="11"
       height="1"
       x="13"
       y="24" />
    <rect
       y="26"
       x="13"
       height="1"
       width="11"
       id="rect3650"
       style="fill:#000000;fill-opacity:1;stroke:none" />
    <rect
       style="fill:#000000;fill-opacity:1;stroke:none"
       id="rect3652"
       width="11"
       height="1"
       x="13"
       y="29" />
    <rect
       y="31"
       x="13"
       height="1"
       width="11"
       id="rect3654"
       style="fill:#000000;fill-opacity:1;stroke:none" />
    <rect
       style="fill:#000000;fill-opacity:1;stroke:none"
       id="rect3656"
       width="11"
       height="1"
       x="13"
       y="33" />
    <rect
       y="35"
       x="13"
       height="1"
       width="11"
       id="rect3658"
       style="fill:#000000;fill-opacity:1;stroke:none" />
    <rect
       style="fill:#000000;fill-opacity:1;stroke:none"
       id="rect3660"
       width="11"
       height="1"
       x="13"
       y="37" />
    <rect
       y="39"
       x="13"
       height="1"
       width="11"
       id="rect3662"
       style="fill:#000000;fill-opacity:1;stroke:none" />
    <rect
       style="fill:#000000;fill-opacity:1;stroke:none"
       id="rect3664"
       width="11"
       height="1"
       x="13"
       y="41" />
    <rect
       y="43"
       x="13"
       height="1"
       width="11"
       id="rect3666"
       style="fill:#000000;fill-opacity:1;stroke:none" />
    <rect
       style="fill:#000000;fill-opacity:1;stroke:none"
       id="rect3668"
       width="11"
       height="1"
       x="13"
       y="45" />
    <rect
       style="fill:#000000;fill-opacity:1;stroke:none"
       id="rect3758"
       width="11"
       height="1"
       x="40"
       y="41" />
    <rect
       y="10"
       x="24"
       height="44"
       width="16"
       id="rect3614"
       style="fill:#000000;fill-opacity:1;stroke:none" />
    <rect
       y="47"
       x="13"
       height="1"
       width="11"
       id="rect3670"
       style="fill:#000000;fill-opacity:1;stroke:none" />
    <rect
       style="fill:#000000;fill-opacity:1;stroke:none"
       id="rect3672"
       width="11"
       height="1"
       x="13"
       y="49" />
    <g
       transform="translate(13,0)"
       id="g3600">
      <rect
         y="8"
         x="13"
         height="48"
         width="12"
         id="rect3602"
         style="fill:#000000;fill-opacity:1;stroke:none" />
      <rect
         style="fill:#ffffff;fill-opacity:1;stroke:none"
         id="rect3604"
         width="10"
         height="46"
         x="14"
         y="9" />
    </g>
    <rect
       y="43"
       x="40"
       height="1"
       width="11"
       id="rect3760"
       style="fill:#000000;fill-opacity:1;stroke:none" />
    <rect
       style="fill:#000000;fill-opacity:1;stroke:none"
       id="rect3762"
       width="11"
       height="1"
       x="40"
       y="45" />
    <rect
       y="16"
       x="16"
       height="32"
       width="32"
       id="rect3616"
       style="fill:#000000;fill-opacity:1;stroke:none" />
    <rect
       y="51"
       x="13"
       height="1"
       width="11"
       id="rect3674"
       style="fill:#000000;fill-opacity:1;stroke:none" />
    <rect
       y="47"
       x="40"
       height="1"
       width="11"
       id="rect3764"
       style="fill:#000000;fill-opacity:1;stroke:none" />
    <rect
       style="fill:#ffffff;fill-opacity:1;stroke:none"
       id="rect3618"
       width="30"
       height="30"
       x="17"
       y="17" />
    <rect
       style="fill:#000000;fill-opacity:1;stroke:none"
       id="rect3676"
       width="11"
       height="1"
       x="13"
       y="53" />
    <rect
       style="fill:#000000;fill-opacity:1;stroke:none"
       id="rect3766"
       width="11"
       height="1"
       x="40"
       y="49" />
    <rect
       style="fill:#000000;fill-opacity:1;stroke:none"
       id="rect3620"
       width="24"
       height="24"
       x="20"
       y="20" />
    <rect
       y="51"
       x="40"
       height="1"
       width="11"
       id="rect3768"
       style="fill:#000000;fill-opacity:1;stroke:none" />
    <rect
       y="21"
       x="21"
       height="22"
       width="22"
       id="rect3622"
       style="fill:#ffffff;fill-opacity:1;stroke:none" />
    <path
       sodipodi:nodetypes="cc"
       id="path3626"
       d="M 21,21 17,17"
       style="fill:none;stroke:#000000;stroke-width:1px;stroke-linecap:butt;stroke-linejoin:miter;stroke-opacity:1"
       inkscape:connector-curvature="0" />
    <rect
       style="fill:#000000;fill-opacity:1;stroke:none"
       id="rect3770"
       width="11"
       height="1"
       x="40"
       y="53" />
    <path
       sodipodi:nodetypes="cc"
       id="path3628"
       d="m 43,21 4,-4"
       style="fill:none;stroke:#000000;stroke-width:1px;stroke-linecap:butt;stroke-linejoin:miter;stroke-opacity:1"
       inkscape:connector-curvature="0" />
    <path
       sodipodi:nodetypes="cc"
       id="path3630"
       d="m 43,43 4,4"
       style="fill:none;stroke:#000000;stroke-width:1px;stroke-linecap:butt;stroke-linejoin:miter;stroke-opacity:1"
       inkscape:connector-curvature="0" />
    <path
       id="path3632"
       d="M 20.92246,43.010695 17,47"
       style="fill:none;stroke:#000000;stroke-width:1px;stroke-linecap:butt;stroke-linejoin:miter;stroke-opacity:1"
       inkscape:connector-curvature="0" />
    <rect
       style="fill:#000000;fill-opacity:1;stroke:none"
       id="rect3684"
       width="11"
       height="1"
       x="27"
       y="10" />
    <rect
       y="12"
       x="27"
       height="1"
       width="11"
       id="rect3686"
       style="fill:#000000;fill-opacity:1;stroke:none" />
    <rect
       style="fill:#000000;fill-opacity:1;stroke:none"
       id="rect3688"
       width="11"
       height="1"
       x="27"
       y="14" />
    <rect
       y="49"
       x="27"
       height="1"
       width="11"
       id="rect3722"
       style="fill:#000000;fill-opacity:1;stroke:none" />
    <rect
       style="fill:#000000;fill-opacity:1;stroke:none"
       id="rect3724"
       width="11"
       height="1"
       x="27"
       y="51" />
    <rect
       y="53"
       x="27"
       height="1"
       width="11"
       id="rect3726"
       style="fill:#000000;fill-opacity:1;stroke:none" />
    <g
       id="g3778">
      <path
         style="fill:#ffffff;fill-opacity:1;stroke:#000000;stroke-width:1px;stroke-linecap:butt;stroke-linejoin:miter;stroke-opacity:1"
         d="m 19,33 c 0,-2.5 0,-5.5 -1.5,-5.5 -1.489172,0 -3,2 -3,5.5 0,3.338989 1.508869,6 3,6 1.5,0 1.5,-3.370131 1.5,-6 z"
         id="path3772"
         sodipodi:nodetypes="czzzz"
         inkscape:connector-curvature="0" />
      <path
         style="fill:#ffffff;fill-opacity:1;stroke:#000000;stroke-width:1px;stroke-linecap:butt;stroke-linejoin:miter;stroke-opacity:1"
         d="m 15,30 1,-2 -2,-2 -2,0 0,1 1,0 2,3 z"
         id="path3774"
         sodipodi:nodetypes="ccccccc"
         inkscape:connector-curvature="0" />
      <path
         id="path3776"
         d="m 15,36 1,2 -2,2 -2,0 0,-1 1,0 2,-3 z"
         style="fill:#ffffff;fill-opacity:1;stroke:#000000;stroke-width:1px;stroke-linecap:butt;stroke-linejoin:miter;stroke-opacity:1"
         inkscape:connector-curvature="0" />
    </g>
    <g
       transform="matrix(-1,0,0,1,64,0)"
       id="g3783">
      <path
         sodipodi:nodetypes="czzzz"
         id="path3785"
         d="m 19,33 c 0,-2.5 0,-5.5 -1.5,-5.5 -1.489172,0 -3,2 -3,5.5 0,3.338989 1.508869,6 3,6 1.5,0 1.5,-3.370131 1.5,-6 z"
         style="fill:#ffffff;fill-opacity:1;stroke:#000000;stroke-width:1px;stroke-linecap:butt;stroke-linejoin:miter;stroke-opacity:1"
         inkscape:connector-curvature="0" />
      <path
         sodipodi:nodetypes="ccccccc"
         id="path3787"
         d="m 15,30 1,-2 -2,-2 -2,0 0,1 1,0 2,3 z"
         style="fill:#ffffff;fill-opacity:1;stroke:#000000;stroke-width:1px;stroke-linecap:butt;stroke-linejoin:miter;stroke-opacity:1"
         inkscape:connector-curvature="0" />
      <path
         style="fill:#ffffff;fill-opacity:1;stroke:#000000;stroke-width:1px;stroke-linecap:butt;stroke-linejoin:miter;stroke-opacity:1"
         d="m 15,36 1,2 -2,2 -2,0 0,-1 1,0 2,-3 z"
         id="path3789"
         inkscape:connector-curvature="0" />
    </g>
    <rect
       ry="2"
       y="18"
       x="24"
       height="27"
       width="7"
       id="rect3841"
       style="fill:#000000;fill-opacity:1;stroke:none" />
    <rect
       style="fill:#ffffff;fill-opacity:1;stroke:none"
       id="rect3845"
       width="5"
       height="25"
       x="25"
       y="19"
       ry="1" />
    <rect
       style="fill:#000000;fill-opacity:1;stroke:none"
       id="rect3847"
       width="7"
       height="27"
       x="33"
       y="18"
       ry="2" />
    <rect
       ry="1"
       y="19"
       x="34"
       height="25"
       width="5"
       id="rect3849"
       style="fill:#ffffff;fill-opacity:1;stroke:none" />
    <rect
       y="28"
       x="29"
       height="8"
       width="6"
       id="rect3791"
       style="fill:#000000;fill-opacity:1;stroke:none" />
    <rect
       style="fill:#ffffff;fill-opacity:1;stroke:none"
       id="rect3793"
       width="4"
       height="6"
       x="30"
       y="29" />
    <path
       id="path3853"
       d="m 26,18 1,0"
       style="fill:none;stroke:#000000;stroke-width:1px;stroke-linecap:butt;stroke-linejoin:miter;stroke-opacity:1"
       inkscape:connector-curvature="0" />
    <path
       sodipodi:nodetypes="cc"
       id="path3855"
       d="m 28,18 1,0"
       style="fill:none;stroke:#000000;stroke-width:1px;stroke-linecap:butt;stroke-linejoin:miter;stroke-opacity:1"
       inkscape:connector-curvature="0" />
    <path
       sodipodi:nodetypes="cc"
       id="path3857"
       d="m 35,18 1,0"
       style="fill:none;stroke:#000000;stroke-width:1px;stroke-linecap:butt;stroke-linejoin:miter;stroke-opacity:1"
       inkscape:connector-curvature="0" />
    <path
       id="path3859"
       d="m 37,18 1,0"
       style="fill:none;stroke:#000000;stroke-width:1px;stroke-linecap:butt;stroke-linejoin:miter;stroke-opacity:1"
       inkscape:connector-curvature="0" />
  </g>
</svg>
